<?xml version="1.0" encoding="UTF-8"?>
<svg width="32px" height="56px" viewBox="0 0 32 56" version="1.1" xmlns="http://www.w3.org/2000/svg" xmlns:xlink="http://www.w3.org/1999/xlink">
    <!-- Generator: Sketch 51.2 (57519) - http://www.bohemiancoding.com/sketch -->
    <title>video modal arrow right</title>
    <desc>Created with Sketch.</desc>
    <defs></defs>
    <g id="Breakpoints" stroke="none" stroke-width="1" fill="none" fill-rule="evenodd">
        <g id="600px-video-modal" transform="translate(-568.000000, -186.000000)">
            <g id="Video-Player" transform="translate(-1.000000, 67.000000)">
                <g id="video-modal-arrow-right" transform="translate(569.000000, 119.000000)">
                    <rect id="Rectangle-3" fill-opacity="0.75" fill="#262626" x="0" y="0" width="32.0792904" height="55.9522507"></rect>
                    <path d="M11.3314445,41.0403435 C11.213174,41.0403435 11.0991291,41.0190666 10.9893065,40.9765122 C10.8794839,40.9339578 10.7823346,40.8701272 10.6978557,40.7850185 C10.5288978,40.614801 10.4444201,40.4105431 10.4444201,40.1722386 C10.4444201,39.9339341 10.5288978,39.7296762 10.6978557,39.5594587 L22.2798591,27.8911081 L10.8752605,16.4270174 C10.7063027,16.2567999 10.621825,16.0482866 10.621825,15.8014713 C10.621825,15.5546559 10.7063027,15.3461426 10.8752605,15.1759251 C11.0442184,15.0057076 11.2511887,14.9206002 11.4961776,14.9206002 C11.7411665,14.9206002 11.9481367,15.0057076 12.1170946,15.1759251 L24.1045949,27.2783282 C24.2735528,27.4485457 24.3580304,27.6528036 24.3580304,27.8911081 C24.3580304,28.1294126 24.2735528,28.3336705 24.1045949,28.503888 L11.9396897,40.7850185 C11.8552108,40.8701272 11.7580615,40.9339578 11.6482389,40.9765122 C11.5384163,41.0190666 11.4328192,41.0403435 11.3314445,41.0403435 Z" id="arrow-right" fill-opacity="0.7" fill="#FFFFFF"></path>
                </g>
            </g>
        </g>
    </g>
</svg>