<?xml version="1.0" encoding="UTF-8"?>
<svg width="40px" height="76px" viewBox="0 0 40 76" version="1.1" xmlns="http://www.w3.org/2000/svg" xmlns:xlink="http://www.w3.org/1999/xlink">
    <!-- Generator: Sketch 51.1 (57501) - http://www.bohemiancoding.com/sketch -->
    <title>video modal arrow right copy</title>
    <desc>Created with Sketch.</desc>
    <defs></defs>
    <g id="Breakpoints" stroke="none" stroke-width="1" fill="none" fill-rule="evenodd" fill-opacity="0.7">
        <g id="1440px-video-modal-hippie" transform="translate(-56.000000, -375.000000)" fill="#FFFFFF">
            <g id="video-modal-arrow-" transform="translate(75.182206, 413.500000) scale(-1, 1) translate(-75.182206, -413.500000) translate(1.000000, 323.000000)">
                <path d="M56.0162251,127.324138 C55.6779256,127.324138 55.3517131,127.263128 55.0375779,127.141106 C54.7234426,127.019085 54.4455579,126.836055 54.2039154,126.592011 C53.7206305,126.103924 53.4789916,125.518229 53.4789916,124.834907 C53.4789916,124.151586 53.7206305,123.56589 54.2039154,123.077804 L87.3329354,89.6196178 L54.7113621,56.7471332 C54.2280772,56.2590463 53.9864383,55.6611489 53.9864383,54.953423 C53.9864383,54.2456971 54.2280772,53.6477997 54.7113621,53.1597128 C55.1946471,52.671626 55.7866623,52.4275862 56.4874256,52.4275862 C57.1881888,52.4275862 57.780204,52.671626 58.263489,53.1597128 L92.5523871,87.8625139 C93.0356721,88.3506007 93.2773109,88.9362962 93.2773109,89.6196178 C93.2773109,90.3029393 93.0356721,90.8886348 92.5523871,91.3767216 L57.7560423,126.592011 C57.5143998,126.836055 57.2365151,127.019085 56.9223799,127.141106 C56.6082446,127.263128 56.3061961,127.324138 56.0162251,127.324138 Z" id="arrow-right"></path>
            </g>
        </g>
    </g>
</svg>