<?xml version="1.0" encoding="UTF-8"?>
<svg width="41px" height="76px" viewBox="0 0 41 76" version="1.1" xmlns="http://www.w3.org/2000/svg" xmlns:xlink="http://www.w3.org/1999/xlink">
    <!-- Generator: Sketch 51.1 (57501) - http://www.bohemiancoding.com/sketch -->
    <title>video modal arrow right 1440</title>
    <desc>Created with Sketch.</desc>
    <defs></defs>
    <g id="Breakpoints" stroke="none" stroke-width="1" fill="none" fill-rule="evenodd" fill-opacity="0.7">
        <g id="1440px-video-modal-hippie" transform="translate(-1345.000000, -375.000000)" fill="#FFFFFF">
            <g id="video-modal-arrow-right-1440" transform="translate(1345.000000, 375.000000)">
                <g id="video-modal-arrow-right">
                    <path d="M3.1541504,75.3241379 C2.81501794,75.3241379 2.48800226,75.263128 2.17309354,75.1411063 C1.85818483,75.0190846 1.57961591,74.8360547 1.33737844,74.5920113 C0.852903494,74.1039245 0.610669655,73.5182291 0.610669655,72.8349075 C0.610669655,72.1515859 0.852903494,71.5658905 1.33737844,71.0778036 L34.5479699,37.6196178 L1.84607459,4.74713318 C1.36159964,4.25904633 1.1193658,3.66114892 1.1193658,2.953423 C1.1193658,2.24569707 1.36159964,1.64779966 1.84607459,1.15971281 C2.33054954,0.671625968 2.92402244,0.427586207 3.62651111,0.427586207 C4.32899978,0.427586207 4.92247269,0.671625968 5.40694764,1.15971281 L39.7802732,35.8625139 C40.2647481,36.3506007 40.506982,36.9362962 40.506982,37.6196178 C40.506982,38.3029393 40.2647481,38.8886348 39.7802732,39.3767216 L4.89825149,74.5920113 C4.65601401,74.8360547 4.3774451,75.0190846 4.06253638,75.1411063 C3.74762767,75.263128 3.44483537,75.3241379 3.1541504,75.3241379 Z" id="arrow-right"></path>
                </g>
            </g>
        </g>
    </g>
</svg>