<?xml version="1.0" encoding="UTF-8"?>
<svg width="51px" height="51px" viewBox="0 0 51 51" version="1.1" xmlns="http://www.w3.org/2000/svg" xmlns:xlink="http://www.w3.org/1999/xlink">
    <!-- Generator: Sketch 51.2 (57519) - http://www.bohemiancoding.com/sketch -->
    <title>Close</title>
    <desc>Created with Sketch.</desc>
    <defs></defs>
    <g id="Breakpoints" stroke="none" stroke-width="1" fill="none" fill-rule="evenodd">
        <g id="1440px-video-modal-hippie" transform="translate(-1355.000000, -30.000000)" fill="#FFFFFF">
            <g id="Close" transform="translate(1355.000000, 30.000000)">
                <path d="M25.5,0 C29.0195488,0 32.3315274,0.664055859 35.4360352,1.9921875 C38.5405429,3.32031914 41.2465705,5.13817206 43.5541992,7.44580078 C45.8618279,9.75342951 47.6796809,12.4594571 49.0078125,15.5639648 C50.3359441,18.6684726 51,21.9804512 51,25.5 C51,29.0195488 50.3359441,32.3315274 49.0078125,35.4360352 C47.6796809,38.5405429 45.8618279,41.2465705 43.5541992,43.5541992 C41.2465705,45.8618279 38.5405429,47.6796809 35.4360352,49.0078125 C32.3315274,50.3359441 29.0195488,51 25.5,51 C21.9804512,51 18.6684726,50.3359441 15.5639648,49.0078125 C12.4594571,47.6796809 9.75342951,45.8618279 7.44580078,43.5541992 C5.13817206,41.2465705 3.32031914,38.5405429 1.9921875,35.4360352 C0.664055859,32.3315274 0,29.0195488 0,25.5 C0,21.9804512 0.664055859,18.6684726 1.9921875,15.5639648 C3.32031914,12.4594571 5.13817206,9.75342951 7.44580078,7.44580078 C9.75342951,5.13817206 12.4594571,3.32031914 15.5639648,1.9921875 C18.6684726,0.664055859 21.9804512,0 25.5,0 Z M25.5,47.8623047 C28.5879061,47.8623047 31.4848498,47.2729551 34.190918,46.0942383 C36.8969862,44.9155215 39.2543845,43.3134867 41.2631836,41.2880859 C43.2719827,39.2626852 44.8657168,36.8969862 46.0444336,34.190918 C47.2231504,31.4848498 47.8125,28.5879061 47.8125,25.5 C47.8125,22.4120939 47.2231504,19.5151502 46.0444336,16.809082 C44.8657168,14.1030138 43.2719827,11.7456155 41.2631836,9.73681641 C39.2543845,7.7280173 36.8969862,6.13428324 34.190918,4.95556641 C31.4848498,3.77684958 28.5879061,3.1875 25.5,3.1875 C22.4120939,3.1875 19.5151502,3.77684958 16.809082,4.95556641 C14.1030138,6.13428324 11.7456155,7.7280173 9.73681641,9.73681641 C7.7280173,11.7456155 6.13428324,14.1030138 4.95556641,16.809082 C3.77684958,19.5151502 3.1875,22.4120939 3.1875,25.5 C3.1875,28.5879061 3.77684958,31.4848498 4.95556641,34.190918 C6.13428324,36.8969862 7.7280173,39.2626852 9.73681641,41.2880859 C11.7456155,43.3134867 14.1030138,44.9155215 16.809082,46.0942383 C19.5151502,47.2729551 22.4120939,47.8623047 25.5,47.8623047 Z M34.5146484,16.4853516 C34.8134781,16.7841812 34.9628906,17.1577126 34.9628906,17.605957 C34.9628906,18.0542015 34.8134781,18.4277329 34.5146484,18.7265625 L27.7412109,25.5 L34.5146484,32.2734375 C34.8134781,32.5722671 34.9628906,32.9457985 34.9628906,33.394043 C34.9628906,33.8422874 34.8134781,34.2158188 34.5146484,34.5146484 C34.2158188,34.8134781 33.8422874,34.9628906 33.394043,34.9628906 C32.9457985,34.9628906 32.5722671,34.8134781 32.2734375,34.5146484 L25.5,27.7412109 L18.7265625,34.5146484 C18.4277329,34.8134781 18.0542015,34.9628906 17.605957,34.9628906 C17.1577126,34.9628906 16.7841812,34.8134781 16.4853516,34.5146484 C16.1865219,34.2158188 16.0371094,33.8422874 16.0371094,33.394043 C16.0371094,32.9457985 16.1865219,32.5722671 16.4853516,32.2734375 L23.2587891,25.5 L16.4853516,18.7265625 C16.1865219,18.4277329 16.0371094,18.0542015 16.0371094,17.605957 C16.0371094,17.1577126 16.1865219,16.7841812 16.4853516,16.4853516 C16.7841812,16.1865219 17.1577126,16.0371094 17.605957,16.0371094 C18.0542015,16.0371094 18.4277329,16.1865219 18.7265625,16.4853516 L25.5,23.2587891 L32.2734375,16.4853516 C32.5722671,16.1865219 32.9457985,16.0371094 33.394043,16.0371094 C33.8422874,16.0371094 34.2158188,16.1865219 34.5146484,16.4853516 Z" id="close---simple-line-icons"></path>
            </g>
        </g>
    </g>
</svg>