<?xml version="1.0" encoding="UTF-8"?>
<svg width="39px" height="39px" viewBox="0 0 39 39" version="1.1" xmlns="http://www.w3.org/2000/svg" xmlns:xlink="http://www.w3.org/1999/xlink">
    <!-- Generator: Sketch 51.2 (57519) - http://www.bohemiancoding.com/sketch -->
    <title>gm logo</title>
    <desc>Created with Sketch.</desc>
    <defs></defs>
    <g id="Breakpoints" stroke="none" stroke-width="1" fill="none" fill-rule="evenodd">
        <g id="1440px-" transform="translate(-151.000000, -2057.000000)">
            <g id="Footer" transform="translate(1.000000, 1802.000000)">
                <g id="gm-logo" transform="translate(150.000000, 255.000000)">
                    <g id="Group-7">
                        <polygon id="Fill-1" fill="#FFFFFF" points="0 38.9496774 38.9454839 38.9496774 38.9454839 0 0 0"></polygon>
                        <polygon id="Fill-2" fill="#0065A7" points="1.4513871 37.5270161 37.6802903 37.5270161 37.6802903 1.30377419 1.4513871 1.30377419"></polygon>
                        <polygon id="Fill-3" fill="#FFFFFF" points="10.5102903 28.503129 28.6371129 28.503129 28.6371129 25.5613548 10.5102903 25.5613548"></polygon>
                        <polygon id="Fill-4" fill="#FFFFFF" points="19.4918226 10.3891177 22.5581452 10.3891177 24.0579677 20.3519403 25.5871452 10.3891177 28.6167742 10.3891177 28.6167742 23.9990694 26.5992581 23.9990694 26.5992581 13.7517145 24.8933226 23.9990694 23.1513226 23.9990694 21.5126935 13.7517145 21.5126935 23.97915 19.4918226 23.97915"></polygon>
                        <path d="M15.2976661,14.7138194 L17.3703274,14.7138194 L17.3703274,13.7516097 C17.3703274,12.8105774 17.3703274,10.1105613 13.9022629,10.1105613 C10.5195371,10.1105613 10.5195371,13.1944968 10.5195371,13.7516097 L10.5195371,20.8238194 C10.5195371,22.8891419 11.2777306,24.2453355 13.2323435,24.2558194 C14.385779,24.2572871 15.1894726,23.5309645 15.3641339,23.2623677 L15.3641339,23.9790452 L17.3703274,23.9991742 L17.3703274,16.6285935 L14.1085855,16.6285935 L14.1085855,18.2651258 L15.2976661,18.2651258 L15.2976661,20.4151581 C15.2976661,21.5115613 14.9605048,22.2538194 13.9383274,22.2538194 C12.9192952,22.2538194 12.5972306,21.4637548 12.5972306,20.4151581 L12.5972306,13.7516097 C12.5972306,13.212529 12.5972306,11.9754323 13.9383274,11.9754323 C15.2976661,11.9754323 15.2976661,13.2311903 15.2976661,13.7516097 L15.2976661,14.7138194 Z" id="Fill-5" fill="#FFFFFF"></path>
                    </g>
                </g>
            </g>
        </g>
    </g>
</svg>