<?xml version="1.0" encoding="UTF-8"?>
<svg width="377px" height="76px" viewBox="0 0 377 76" version="1.1" xmlns="http://www.w3.org/2000/svg" xmlns:xlink="http://www.w3.org/1999/xlink">
    <!-- Generator: Sketch 51.1 (57501) - http://www.bohemiancoding.com/sketch -->
    <title>happy place</title>
    <desc>Created with Sketch.</desc>
    <defs>
        <filter x="-1.2%" y="-8.1%" width="104.1%" height="122.1%" filterUnits="objectBoundingBox" id="filter-1">
            <feOffset dx="3" dy="2" in="SourceAlpha" result="shadowOffsetOuter1"></feOffset>
            <feGaussianBlur stdDeviation="2" in="shadowOffsetOuter1" result="shadowBlurOuter1"></feGaussianBlur>
            <feColorMatrix values="0 0 0 0 1   0 0 0 0 1   0 0 0 0 1  0 0 0 0.66 0" type="matrix" in="shadowBlurOuter1" result="shadowMatrixOuter1"></feColorMatrix>
            <feMerge>
                <feMergeNode in="shadowMatrixOuter1"></feMergeNode>
                <feMergeNode in="SourceGraphic"></feMergeNode>
            </feMerge>
        </filter>
    </defs>
    <g id="Breakpoints" stroke="none" stroke-width="1" fill="none" fill-rule="evenodd">
        <g id="1440px-" transform="translate(-536.000000, -75.000000)">
            <g id="Masthead" transform="translate(0.000000, 50.000000)">
                <g id="happy-place" filter="url(#filter-1)" transform="translate(537.000000, 27.000000)">
                    <g id="Group-5" transform="translate(30.368661, 0.000000)" fill="#231F20">
                        <path d="M0.103521487,49.6041583 L6.23517876,49.6041583 L6.23517876,38.3609492 L17.5429104,38.3609492 L17.5429104,49.6041583 L23.6745676,49.6041583 L23.6745676,21.5961641 L17.5429104,21.5961641 L17.5429104,32.6793275 L6.23517876,32.6793275 L6.23517876,21.5961641 L0.103521487,21.5961641 L0.103521487,49.6041583 Z M30.3636483,49.6041583 L36.6147535,49.6041583 L39.1629747,43.3223653 L50.9484977,43.3223653 L53.4967189,49.6041583 L59.9070879,49.6041583 L47.962301,21.396107 L42.3084352,21.396107 L30.3636483,49.6041583 Z M41.3528523,37.8808121 L45.0557362,28.7982197 L48.7586201,37.8808121 L41.3528523,37.8808121 Z M66.5961686,49.6041583 L72.7278259,49.6041583 L72.7278259,41.20176 L77.3862928,41.20176 C83.6373979,41.20176 88.6542084,37.8408007 88.6542084,31.3589506 L88.6542084,31.2789278 C88.6542084,25.5572947 84.6327968,21.5961641 77.9835321,21.5961641 L66.5961686,21.5961641 L66.5961686,49.6041583 Z M72.7278259,35.7201954 L72.7278259,27.1577515 L77.4659247,27.1577515 C80.5317533,27.1577515 82.4429192,28.6381741 82.4429192,31.3989621 L82.4429192,31.4789849 C82.4429192,33.8796701 80.6512012,35.7201954 77.5853725,35.7201954 L72.7278259,35.7201954 Z M95.5821848,49.6041583 L101.713842,49.6041583 L101.713842,41.20176 L106.372309,41.20176 C112.622366,41.20176 117.640225,37.8408007 117.640225,31.3589506 L117.640225,31.2789278 C117.640225,25.5572947 113.618813,21.5961641 106.969548,21.5961641 L95.5821848,21.5961641 L95.5821848,49.6041583 Z M101.713842,35.7201954 L101.713842,27.1577515 L106.450893,27.1577515 C109.51777,27.1577515 111.427888,28.6381741 111.427888,31.3989621 L111.427888,31.4789849 C111.427888,33.8796701 109.637217,35.7201954 106.571389,35.7201954 L101.713842,35.7201954 Z M132.013785,49.6041583 L138.145442,49.6041583 L138.145442,38.440972 L148.855934,21.5961641 L141.888142,21.5961641 L135.119429,32.8393732 L128.470165,21.5961641 L121.303293,21.5961641 L132.013785,38.5610063 L132.013785,49.6041583 Z M169.39992,49.6041583 L175.531577,49.6041583 L175.531577,41.20176 L180.190044,41.20176 C186.441149,41.20176 191.45796,37.8408007 191.45796,31.3589506 L191.45796,31.2789278 C191.45796,25.5572947 187.436548,21.5961641 180.787284,21.5961641 L169.39992,21.5961641 L169.39992,49.6041583 Z M175.531577,35.7201954 L175.531577,27.1577515 L180.269676,27.1577515 C183.335505,27.1577515 185.246671,28.6381741 185.246671,31.3989621 L185.246671,31.4789849 C185.246671,33.8796701 183.454953,35.7201954 180.389124,35.7201954 L175.531577,35.7201954 Z M198.385936,49.6041583 L218.413362,49.6041583 L218.413362,44.0025594 L204.517594,44.0025594 L204.517594,21.5961641 L198.385936,21.5961641 L198.385936,49.6041583 Z M223.030966,49.6041583 L229.282071,49.6041583 L231.830292,43.3223653 L243.615815,43.3223653 L246.164036,49.6041583 L252.574405,49.6041583 L240.629618,21.396107 L234.975752,21.396107 L223.030966,49.6041583 Z M234.020169,37.8808121 L237.723053,28.7982197 L241.425937,37.8808121 L234.020169,37.8808121 Z M270.531401,50.0842953 C275.906556,50.0842953 279.091832,48.1637471 281.958581,45.0828678 L278.056617,41.1217372 C275.86674,43.1223082 273.915758,44.4026736 270.730481,44.4026736 C265.952566,44.4026736 262.647842,40.4015316 262.647842,35.6001612 L262.647842,35.5201383 C262.647842,30.7187679 266.032198,26.7976487 270.730481,26.7976487 C273.517598,26.7976487 275.707476,27.9979913 277.857537,29.9585509 L281.759501,25.4372604 C279.171464,22.8765295 276.026003,21.116027 270.770297,21.116027 C262.209867,21.116027 256.237473,27.6378885 256.237473,35.6001612 L256.237473,35.680184 C256.237473,43.7224795 262.329314,50.0842953 270.531401,50.0842953 Z M289.244901,49.6041583 L310.466806,49.6041583 L310.466806,44.1225937 L295.336742,44.1225937 L295.336742,38.2409149 L308.476008,38.2409149 L308.476008,32.7593503 L295.336742,32.7593503 L295.336742,27.0777287 L310.267726,27.0777287 L310.267726,21.5961641 L289.244901,21.5961641 L289.244901,49.6041583 Z" id="Fill-1"></path>
                        <path d="M118.119273,11.1685562 C120.111119,11.1685562 121.327601,10.4357155 122.438257,9.27538427 L121.236444,8.05293009 C120.32382,8.9089639 119.487685,9.42805943 118.180045,9.42805943 C116.142097,9.42805943 114.667859,7.73178579 114.667859,5.63750382 L114.667859,5.60696879 C114.667859,3.51268682 116.157814,1.83115424 118.180045,1.83115424 C119.396527,1.83115424 120.309151,2.36709668 121.161003,3.16100749 L122.361768,1.77008417 C121.343318,0.794016106 120.157222,0.106451437 118.195762,0.106451437 C114.971717,0.106451437 112.707447,2.59558295 112.707447,5.63750382 L112.707447,5.66803885 C112.707447,8.74049476 115.016772,11.1685562 118.119273,11.1685562 Z M124.781112,10.985346 L132.748494,10.985346 L132.748494,9.3059193 L126.650366,9.3059193 L126.650366,6.43141463 L131.9878,6.43141463 L131.9878,4.75198792 L126.650366,4.75198792 L126.650366,1.96908834 L132.672005,1.96908834 L132.672005,0.289661624 L124.781112,0.289661624 L124.781112,10.985346 Z M135.350152,10.985346 L137.218359,10.985346 L137.218359,7.25691341 L139.561214,7.25691341 L142.177541,10.985346 L144.396757,10.985346 L141.523721,6.93576912 C142.997959,6.50827868 144.046796,5.45534657 144.046796,3.69694994 L144.046796,3.66641491 C144.046796,2.73351706 143.72722,1.93855331 143.165606,1.35838772 C142.4814,0.68661703 141.432564,0.289661624 140.09349,0.289661624 L135.350152,0.289661624 L135.350152,10.985346 Z M137.218359,5.59328067 L137.218359,1.99962337 L139.941561,1.99962337 C141.325689,1.99962337 142.147155,2.62611798 142.147155,3.77381398 L142.147155,3.80434901 C142.147155,4.88992202 141.295303,5.59328067 139.957278,5.59328067 L137.218359,5.59328067 Z M149.295167,10.985346 L151.178043,10.985346 L151.178043,2.03015841 L154.554017,2.03015841 L154.554017,0.289661624 L145.919193,0.289661624 L145.919193,2.03015841 L149.295167,2.03015841 L149.295167,10.985346 Z M157.019463,10.985346 L158.887669,10.985346 L158.887669,0.290714556 L157.019463,0.290714556 L157.019463,10.985346 Z M162.11381,10.985346 L163.982016,10.985346 L163.982016,6.6304188 L169.349836,6.6304188 L169.349836,4.92045705 L163.982016,4.92045705 L163.982016,1.99962337 L170.034042,1.99962337 L170.034042,0.289661624 L162.11381,0.289661624 L162.11381,10.985346 Z M172.575976,10.985346 L174.444183,10.985346 L174.444183,0.290714556 L172.575976,0.290714556 L172.575976,10.985346 Z M177.670323,10.985346 L185.636658,10.985346 L185.636658,9.3059193 L179.538529,9.3059193 L179.538529,6.43141463 L184.875963,6.43141463 L184.875963,4.75198792 L179.538529,4.75198792 L179.538529,1.96908834 L185.560169,1.96908834 L185.560169,0.289661624 L177.670323,0.289661624 L177.670323,10.985346 Z M188.238316,10.985346 L192.20629,10.985346 C195.552926,10.985346 197.862252,8.64888966 197.862252,5.63750382 L197.862252,5.60696879 C197.862252,2.59558295 195.552926,0.289661624 192.20629,0.289661624 L188.238316,0.289661624 L188.238316,10.985346 Z M192.20629,1.99962337 C194.442271,1.99962337 195.902888,3.54322185 195.902888,5.63750382 L195.902888,5.66803885 C195.902888,7.76232082 194.442271,9.27538427 192.20629,9.27538427 L190.106523,9.27538427 L190.106523,1.99962337 L192.20629,1.99962337 Z" id="Fill-3"></path>
                    </g>
                    <polygon id="Fill-6" fill="#002F56" points="84.4854094 3.3718124 0 3.45283799 0.00416471504 8.54039203 0.00520589381 8.54039203 0.0562236531 67.3852255 5.02576988 67.3798949 5.02576988 67.3777627 369 67.0152798 368.994794 61.9266596 368.993753 61.9266596 368.943776 3.38673816 363.97423 3.39100267 363.97423 3.39526717 284.451079 3.47202826 284.451079 3.48375564 235.5188 3.48375564 235.5188 8.56704519 284.529167 8.56704519 284.529167 8.55851618 363.978395 8.48282122 364.025248 61.9330564 5.02056399 62.2902086 4.97475212 8.53612753 84.5489213 8.46043257 84.5489213 8.45403581 133.495776 8.45403581 133.495776 3.3718124"></polygon>
                </g>
            </g>
        </g>
    </g>
</svg>