<?xml version="1.0" encoding="UTF-8"?>
<svg width="13px" height="14px" viewBox="0 0 13 14" version="1.1" xmlns="http://www.w3.org/2000/svg" xmlns:xlink="http://www.w3.org/1999/xlink">
    <!-- Generator: Sketch 51.1 (57501) - http://www.bohemiancoding.com/sketch -->
    <title>search - FontAwesome</title>
    <desc>Created with Sketch.</desc>
    <defs></defs>
    <g id="Breakpoints" stroke="none" stroke-width="1" fill="none" fill-rule="evenodd">
        <g id="1440px-" transform="translate(-946.000000, -17.000000)" fill="#A09F9F">
            <g id="Nav">
                <g id="vehicle-search" transform="translate(946.000000, 16.000000)">
                    <path d="M9,7.07142857 C9,6.10788209 8.65755551,5.28367158 7.97265625,4.59877232 C7.28775699,3.91387306 6.46354648,3.57142857 5.5,3.57142857 C4.53645352,3.57142857 3.71224301,3.91387306 3.02734375,4.59877232 C2.34244449,5.28367158 2,6.10788209 2,7.07142857 C2,8.03497506 2.34244449,8.85918556 3.02734375,9.54408482 C3.71224301,10.2289841 4.53645352,10.5714286 5.5,10.5714286 C6.46354648,10.5714286 7.28775699,10.2289841 7.97265625,9.54408482 C8.65755551,8.85918556 9,8.03497506 9,7.07142857 Z M13,13.5714286 C13,13.8422633 12.9010427,14.0766359 12.703125,14.2745536 C12.5052073,14.4724712 12.2708347,14.5714286 12,14.5714286 C11.7187486,14.5714286 11.4843759,14.4724712 11.296875,14.2745536 L8.6171875,11.6026786 C7.68489117,12.2485151 6.64583906,12.5714286 5.5,12.5714286 C4.75520461,12.5714286 4.04297215,12.4268988 3.36328125,12.1378348 C2.68359035,11.8487709 2.09765871,11.4581498 1.60546875,10.9659598 C1.11327879,10.4737699 0.722657695,9.88783822 0.43359375,9.20814732 C0.144529805,8.52845642 0,7.81622396 0,7.07142857 C0,6.32663318 0.144529805,5.61440072 0.43359375,4.93470982 C0.722657695,4.25501892 1.11327879,3.66908728 1.60546875,3.17689732 C2.09765871,2.68470736 2.68359035,2.29408627 3.36328125,2.00502232 C4.04297215,1.71595838 4.75520461,1.57142857 5.5,1.57142857 C6.24479539,1.57142857 6.95702785,1.71595838 7.63671875,2.00502232 C8.31640965,2.29408627 8.90234129,2.68470736 9.39453125,3.17689732 C9.88672121,3.66908728 10.2773423,4.25501892 10.5664062,4.93470982 C10.8554702,5.61440072 11,6.32663318 11,7.07142857 C11,8.21726763 10.6770866,9.25631974 10.03125,10.1886161 L12.7109375,12.8683036 C12.9036468,13.0610129 13,13.2953855 13,13.5714286 Z" id="search---FontAwesome"></path>
                </g>
            </g>
        </g>
    </g>
</svg>