<?xml version="1.0" encoding="UTF-8"?>
<svg width="10px" height="14px" viewBox="0 0 10 14" version="1.1" xmlns="http://www.w3.org/2000/svg" xmlns:xlink="http://www.w3.org/1999/xlink">
    <!-- Generator: Sketch 51.1 (57501) - http://www.bohemiancoding.com/sketch -->
    <title>location_on - material</title>
    <desc>Created with Sketch.</desc>
    <defs></defs>
    <g id="Breakpoints" stroke="none" stroke-width="1" fill="none" fill-rule="evenodd">
        <g id="1440px-" transform="translate(-1125.000000, -18.000000)" fill="#A09F9F">
            <g id="Nav">
                <g id="dealer-locator" transform="translate(1122.000000, 16.000000)">
                    <path d="M8,8.70106122 C8.29866816,8.70106122 8.57599872,8.6263953 8.832,8.47706122 C9.08800128,8.32772714 9.29066592,8.12772914 9.44,7.87706122 C9.58933408,7.6263933 9.664,7.35172938 9.664,7.05306122 C9.664,6.75439306 9.58933408,6.4770625 9.44,6.22106122 C9.29066592,5.96505994 9.08800128,5.7623953 8.832,5.61306122 C8.57599872,5.46372714 8.29866816,5.38906122 8,5.38906122 C7.70133184,5.38906122 7.42666792,5.46372714 7.176,5.61306122 C6.92533208,5.7623953 6.72533408,5.96505994 6.576,6.22106122 C6.42666592,6.4770625 6.352,6.75439306 6.352,7.05306122 C6.352,7.51173018 6.5119984,7.90105962 6.832,8.22106122 C7.1520016,8.54106282 7.54133104,8.70106122 8,8.70106122 Z M8,2.39706122 C8.8533376,2.39706122 9.63732976,2.60505914 10.352,3.02106122 C11.0560035,3.4370633 11.6159979,3.9970577 12.032,4.70106122 C12.4480021,5.41573146 12.656,6.19972362 12.656,7.05306122 C12.656,7.70373114 12.4960016,8.45039034 12.176,9.29306122 C11.8986653,10.0077315 11.5146691,10.7810571 11.024,11.6130612 C10.6186646,12.2743979 10.1546693,12.962391 9.632,13.6770612 C9.26933152,14.1783971 8.88533536,14.6690588 8.48,15.1490612 L8,15.7090612 L7.52,15.1490612 C7.11466464,14.6690588 6.73066848,14.1783971 6.368,13.6770612 C5.84533072,12.962391 5.38133536,12.2743979 4.976,11.6130612 C4.48533088,10.7810571 4.10133472,10.0077315 3.824,9.29306122 C3.5039984,8.45039034 3.344,7.70373114 3.344,7.05306122 C3.344,6.19972362 3.55199792,5.41573146 3.968,4.70106122 C4.38400208,3.9970577 4.94399648,3.4370633 5.648,3.02106122 C6.36267024,2.60505914 7.1466624,2.39706122 8,2.39706122 Z" id="location_on---material"></path>
                </g>
            </g>
        </g>
    </g>
</svg>